<svg xmlns="http://www.w3.org/2000/svg" viewBox="0 0 52 52"><path fill="#d8a353" d="M24.269 14.864c1.064 1.561 3.076 1.115 4.771 1.113a212.02 212.02 0 0 0 8.735-.206c1.602-.069 1.611-2.57 0-2.5-1.94.083-3.88.147-5.822.18-.514.008-5.347.413-5.525.151-.901-1.321-3.068-.072-2.16 1.262zM30.363 22.843c2.624.173 5.226.474 7.818.918 1.574.269 2.25-2.14.665-2.411a82.422 82.422 0 0 0-8.483-1.007c-1.606-.106-1.6 2.394 0 2.5zM39.442 27.118a693.203 693.203 0 0 0-25.166-.178c-1.608.018-1.612 2.518 0 2.5 8.39-.093 16.778-.033 25.166.178 1.609.041 1.608-2.459 0-2.5zM39.098 34.909c-8.765.584-17.808-1.876-26.416-.592-1.586.236-.912 2.645.664 2.41 4.504-.671 8.85.304 13.33.665 4.148.335 8.272.293 12.422.017 1.597-.107 1.609-2.608 0-2.5zM38.771 42.312a208.277 208.277 0 0 0-24.833.098c-1.598.102-1.609 2.603 0 2.5 8.281-.526 16.549-.56 24.833-.098 1.608.09 1.603-2.41 0-2.5zM25.467 23.71c-.5-1.97.572-4.03-.351-5.9-.672-1.36-2.077-2.083-3.446-2.55-2.864-.976-6.95-1.73-9.106 1.02-1.165 1.486-2.848 6.65-.758 7.892.53.315 1.309.15 1.866.159 1.426.023 2.823.213 4.233.411 2.246.316 4.425.601 6.694.342 1.58-.18 1.598-2.683 0-2.5-2.372.271-4.595-.06-6.942-.386-.715-.1-1.439-.204-2.158-.27-.53-.05-2.478.052-2.664-.083l.619 1.08c-.143-1.24.153-2.685.518-3.883.72-2.367 3.041-2.343 5.056-1.909 2.147.463 3.846.833 3.841 3.527-.002 1.336-.154 2.372.187 3.715.396 1.558 2.807.898 2.41-.665z" class="color000000 svgShape"/><path fill="#d8a353" d="M20.566 13.94c.884-.72 1.808-.813 2.337-1.95.508-1.093.422-2.433.374-3.605-.045-1.116-.433-1.774-1.438-2.31-1.115-.593-2.603-1.118-3.88-1.157-2.363-.072-3.975 2.318-4.252 4.438-.146 1.116-.034 2.3.882 3.054 1.066.88 2.574 1.386 3.848 1.876 1.503.578 2.154-1.838.665-2.41a20.963 20.963 0 0 1-1.99-.879c-.748-.38-1.043-.486-.938-1.388.066-.563.357-1.254.766-1.656.66-.65 1.217-.52 2.028-.295.326.096.65.199.972.309.276.29.554.354.834.19.182.233.039 1.46.022 1.776-.076 1.409-1.046 1.463-1.998 2.24-1.247 1.018.531 2.778 1.768 1.768z" class="color000000 svgShape"/><path fill="#d8a353" d="M44.242 12.271c.351 5.621-1.163 11.358-.98 17.062.092 2.86.331 5.712.46 8.57.099 2.182.838 6.432-.05 8.543-1.965 4.677-13.62 2.756-17.431 2.262-5.286-.685-11.4 1.698-16.02-1.165-2.673-1.658-2.296-1.554-2.353-4.214a164.873 164.873 0 0 1-.035-4.676c.02-2.806.115-5.611.277-8.413.303-5.253.704-10.39.282-15.65-.166-2.063-1.525-6.61-.714-8.38 1.684-3.677 5.258-3.221 8.49-3.257 5.707-.062 11.396-.088 17.088.393 1.603.135 1.594-2.366 0-2.5-7.24-.612-14.97-.983-22.222-.312-5.477.507-6.096 2.421-5.732 7.54.559 7.86.664 15.233.253 23.1-.227 4.35-.333 8.735-.167 13.09.082 2.132-.046 3.88 1.622 5.4 4.052 3.692 11.625 1.18 16.396 1.321 3.67.11 6.958 1.012 10.662.81 2.904-.16 7.44.262 10.023-.898 3.777-1.696 2.274-9.832 2.131-12.994-.185-4.12-.59-8.241-.513-12.37.084-4.46 1.311-8.806 1.033-13.262-.1-1.598-2.601-1.61-2.5 0z" class="color000000 svgShape"/><path fill="#d8a353" d="M33.348 2.902c3.529 3.337 7.474 6.536 10.09 10.677.856 1.357 3.02.104 2.158-1.261-2.742-4.342-6.783-7.687-10.48-11.184-1.17-1.105-2.94.66-1.768 1.768z" class="color000000 svgShape"/></svg>